<svg id="Capa_1" data-name="Capa 1" xmlns="http://www.w3.org/2000/svg" viewBox="0 0 1935.8 383.72"><defs><style>.cls-1{fill:#fff;}</style></defs><path class="cls-1" d="M257,36.45c-.44,0-.91.06-1.35.08a27,27,0,0,1,2.85,0C258,36.52,257.49,36.45,257,36.45Z"/><path class="cls-1" d="M288.76,187.27c.56,0,1.12-.06,1.68-.09-.84,0-1.69.08-2.52,0C288.2,187.24,288.48,187.27,288.76,187.27Z"/><path class="cls-1" d="M484.6,321.11h-2.28L399.46,181.72a31.7,31.7,0,0,0-58.95,16.2V365.16h35.24V210.27h2l83.14,139.42a31.72,31.72,0,0,0,59-16.25V166.22H484.6Z"/><polygon class="cls-1" points="532.72 200.32 585.72 200.32 585.72 365.16 622.95 365.16 622.95 200.32 676.24 200.32 676.24 166.22 532.72 166.22 532.72 200.32"/><path class="cls-1" d="M736.35,331.62a9.81,9.81,0,0,1-9.81-9.81V279.9H826V247.5H726.54V199.75H832.83V166.22H689.31V324.58a40.58,40.58,0,0,0,40.58,40.58H834.54V331.62Z"/><path class="cls-1" d="M1247.06,331.62a9.81,9.81,0,0,1-9.81-9.81V279.9h99.47V247.5h-99.47V199.75h106.29V166.22H1200V324.58a40.58,40.58,0,0,0,40.58,40.58h104.64V331.62Z"/><path class="cls-1" d="M960.09,286.75A74.94,74.94,0,0,0,977.77,281q16.2-7.66,24.59-21.45t8.38-32q0-17.9-8.38-31.82T977.77,174q-16.2-7.8-38.93-7.81H894.06a46.44,46.44,0,0,0-46.45,46.45V365.16h37.23V288.71H918.6l47.46,76.45h43.76Zm-75.25-77.13a9.87,9.87,0,0,1,9.86-9.87h43.57q16.49,0,25.29,7.25t8.82,20.6a27.43,27.43,0,0,1-4,15.07,24.87,24.87,0,0,1-11.65,9.52q-7.66,3.27-18.47,3.27H884.84Z"/><path class="cls-1" d="M1153.27,174.18q-16.63-8-39.36-8h-48.45a41.64,41.64,0,0,0-41.65,41.64v157.3H1061v-73h52.87q22.72,0,39.36-8t25.15-22.31q8.52-14.34,8.52-32.82t-8.52-32.69Q1169.89,182.14,1153.27,174.18Zm-8.53,70.76a25.83,25.83,0,0,1-12.08,9.95q-8,3.41-19.32,3.41H1061V209.94a10.19,10.19,0,0,1,10.19-10.19h42.11q17.06,0,26.29,7.68t9.23,21.6Q1148.86,238.41,1144.74,244.94Z"/><path class="cls-1" d="M1489.33,257.31q-16.2-7.31-42.62-11-19.34-2.58-29.56-5.72t-14.64-8q-4.41-4.87-4.4-12.89,0-12,10.09-18t28-6a70.52,70.52,0,0,1,23,3.44,34.52,34.52,0,0,1,15.91,10.74q6,7.3,6,17.9h38.37a63.83,63.83,0,0,0-10.23-34.51q-10-15.32-28.42-23.77t-42.63-8.45q-23.88,0-41.64,7.31t-27.28,20.9q-9.52,13.6-9.52,32.22,0,17.48,7.25,28.64t24.16,18q16.89,6.87,47,11.45,17.05,2.87,26.43,6.16t13.5,8.59q4.11,5.31,4.12,13.61,0,13.17-10.66,19.75t-29.41,6.59q-16.2,0-28-4.72t-17.9-13.32a35.15,35.15,0,0,1-6.39-20.05h-38.09q.29,21.48,10.8,37.95t30.55,25.63q20,9.17,47.89,9.16,23.88,0,41.92-7.44t27.85-21.48q9.81-14,9.81-33.51,0-18-7.53-29.92T1489.33,257.31Z"/><path class="cls-1" d="M1688.56,282.08a59.66,59.66,0,0,1-9.24,25.63,54.19,54.19,0,0,1-20.46,18.47q-12.93,6.87-30,6.88-18.77,0-33-8.45A56.34,56.34,0,0,1,1574,300.84q-7.66-15.31-7.67-35.94T1574,229a56.34,56.34,0,0,1,21.89-23.77q14.21-8.44,33-8.45,16.75,0,29.84,6.87a56.09,56.09,0,0,1,20.74,18.19,53.49,53.49,0,0,1,9.1,24.77h38.37a90.78,90.78,0,0,0-48.75-74q-21.73-11.59-49.3-11.6-29,0-52.3,13.32a94.36,94.36,0,0,0-36.37,36.94q-13.08,23.63-13.08,53.7t13.08,53.69a94.5,94.5,0,0,0,36.23,37q23.16,13.31,52.44,13.31,27.28,0,49-11.74a92.38,92.38,0,0,0,34.53-31.64,91.28,91.28,0,0,0,14.5-43.39Z"/><path class="cls-1" d="M1849,190a36.77,36.77,0,0,0-68.82,0l-66.06,175.14H1753l15.56-42.35h91.16l15.48,42.35H1915Zm-68.06,99.26,32.37-88.1h2l32.22,88.1Z"/><path class="cls-1" d="M291.06,204.23V365.16h36.38V185.78C322.55,194.19,305.05,204.23,291.06,204.23Z"/><path class="cls-1" d="M267.06,38.74a18.6,18.6,0,0,0-3.58-1.44h0A18.6,18.6,0,0,1,267.06,38.74Z"/><path class="cls-1" d="M290.44,187.18c.21,0,.41,0,.62,0v0Z"/><path class="cls-1" d="M291.06,187.14v0l.53,0Z"/><path class="cls-1" d="M339,135.63c-1.77-12-13.76-17.84-28.16-14.71-13.07,2.84-25.36,11.65-33.62,22.41A89.69,89.69,0,0,1,238.52,172l-.6.22c-9.22,3.45-17.75,2.72-22.92-1.95h0c-5.16-4.67-6.36-12.71-3.22-21.62l6.62-18.84a156.18,156.18,0,0,1,39.49-60.38c8.39-8,14.74-18.15,16.68-28.65,2.56-13.83-4.25-24.38-16.86-26-20.36-2.61-45.57,16.1-53.23,37.86-2.91,8.29-2.8,15.67-.26,21.29,7,15.46,5.45,36.08-2,57.2L195.61,150c-3.13,8.92-10.22,17.63-19.07,23.44l-.12.08c-8.85,5.81-18.38,8-25.65,5.93l-5-1.42c-10-2.88-15.57-11.13-16.78-21.85-1.11-9.86-7.81-17-19.6-17.68-12.94-.78-29.2,7.42-40.21,20.33-17.89,21-16.45,44.24,1.29,49.32,8.65,2.48,19.39.12,29.37-5.62,13-7.5,26.53-10.8,37-7.79l2.83.81c7.27,2.08,11.38,8.2,11.08,16.46l-.05,1.31c-.31,8.17-4.9,17.46-12.4,25.05l-2.05,2.08C111,266.07,81.79,288.74,51.05,302.6a64.36,64.36,0,0,0-23.43,18.59C17.08,334.46,13.78,350,19.53,359.66c9.3,15.58,35.4,11.24,54-7.38a58.57,58.57,0,0,0,13.2-19.59c10.92-27.77,31-55,54.51-78.8l6.58-6.67c7.66-7.75,17.4-12.78,26.15-13.49l.27,0c8.71-.71,15.37,3,17.89,9.81l1.14,3.12c3.54,9.65.89,22.36-6,34.89-6.35,11.5-7.71,23.7-1.8,32.08,6.44,9.12,20.78,10.58,35.45,3.54,23.64-11.35,38.33-37.29,32.1-53.88-3-8.1-10.42-12.27-19.64-12.34-12-.09-20.43-6.64-24-16.45l-.74-2c-2.49-6.78-.63-15.9,5-24.54l.8-1.23A50.37,50.37,0,0,1,238,187.41h0c14.37-5.37,28.25-5.68,37.66.14,6.39,4,16.19,5.56,26.23.54C321.62,178.2,341.71,154.27,339,135.63Z"/></svg>