<svg id="Capa_1" data-name="Capa 1" xmlns="http://www.w3.org/2000/svg" viewBox="0 0 2167.94 383.72"><defs><style>.cls-1{fill:#fff;}</style></defs><path class="cls-1" d="M251.51,36.33c-.44,0-.9.06-1.34.08a26.85,26.85,0,0,1,2.84,0C252.51,36.4,252,36.33,251.51,36.33Z"/><path class="cls-1" d="M287.13,187.64c.55,0,1.11-.06,1.67-.09-.85,0-1.68.08-2.51,0C286.57,187.61,286.85,187.64,287.13,187.64Z"/><path class="cls-1" d="M481.91,320.76h-2.26L397.23,182.12a31.53,31.53,0,0,0-58.64,16.11V364.57h35.05v-154h2l82.69,138.66A31.55,31.55,0,0,0,517,333V166.7H481.91Z"/><polygon class="cls-1" points="529.76 200.62 582.48 200.62 582.48 364.57 619.51 364.57 619.51 200.62 672.51 200.62 672.51 166.7 529.76 166.7 529.76 200.62"/><path class="cls-1" d="M732.3,331.22a9.76,9.76,0,0,1-9.75-9.76V279.77h98.93V247.55H722.55V200.06H828.27V166.7H685.52V324.21a40.36,40.36,0,0,0,40.36,40.36H830V331.22Z"/><path class="cls-1" d="M1240.26,331.22a9.76,9.76,0,0,1-9.76-9.76V279.77h98.94V247.55H1230.5V200.06h105.72V166.7H1193.47V324.21a40.36,40.36,0,0,0,40.37,40.36h104.08V331.22Z"/><path class="cls-1" d="M954.84,286.59a75.26,75.26,0,0,0,17.59-5.69q16.11-7.63,24.45-21.34t8.34-31.8q0-17.81-8.34-31.66t-24.45-21.62q-16.11-7.77-38.73-7.78H889.16A46.21,46.21,0,0,0,843,212.9V364.57h37v-76h33.59l47.19,76h43.54ZM880,209.87a9.82,9.82,0,0,1,9.82-9.81h43.33q16.38,0,25.15,7.2t8.77,20.5a27.38,27.38,0,0,1-4,15,24.71,24.71,0,0,1-11.59,9.47q-7.63,3.25-18.37,3.25H880Z"/><path class="cls-1" d="M1147,174.62q-16.55-7.92-39.15-7.92h-48.19a41.42,41.42,0,0,0-41.42,41.42V364.57h37V291.93h52.58q22.61,0,39.15-7.92t25-22.19q8.49-14.26,8.48-32.65t-8.48-32.5Q1163.51,182.54,1147,174.62ZM1138.5,245a25.74,25.74,0,0,1-12,9.9q-7.9,3.39-19.22,3.39h-52v-48.1a10.12,10.12,0,0,1,10.13-10.13h41.88q17,0,26.15,7.63t9.18,21.48Q1142.59,238.5,1138.5,245Z"/><path class="cls-1" d="M1481.23,257.3q-16.11-7.26-42.4-11-19.23-2.57-29.4-5.7t-14.55-8q-4.39-4.84-4.39-12.82,0-12,10-17.95t27.85-6a70,70,0,0,1,22.89,3.42A34.47,34.47,0,0,1,1467.1,210q5.94,7.26,5.93,17.8h38.17A63.6,63.6,0,0,0,1501,193.5q-9.9-15.24-28.27-23.64t-42.4-8.4q-23.74,0-41.41,7.26t-27.13,20.79q-9.48,13.53-9.47,32,0,17.38,7.2,28.49t24,17.94q16.82,6.84,46.78,11.4,17,2.85,26.29,6.12t13.43,8.55q4.1,5.26,4.1,13.53,0,13.1-10.61,19.65t-29.25,6.55q-16.11,0-27.84-4.7t-17.81-13.24a35,35,0,0,1-6.36-19.94h-37.88q.28,21.36,10.74,37.74t30.39,25.49q19.92,9.12,47.63,9.12,23.74,0,41.69-7.41t27.7-21.36q9.77-14,9.76-33.33,0-17.94-7.49-29.76T1481.23,257.3Z"/><path class="cls-1" d="M1679.38,281.94a59.35,59.35,0,0,1-9.18,25.5,54,54,0,0,1-20.36,18.37q-12.85,6.82-29.82,6.83-18.66,0-32.79-8.4a56,56,0,0,1-21.76-23.64q-7.63-15.24-7.64-35.75t7.64-35.75a56,56,0,0,1,21.76-23.63q14.13-8.41,32.79-8.41,16.68,0,29.68,6.84A55.74,55.74,0,0,1,1670.34,222a53.34,53.34,0,0,1,9,24.64h38.16A89.56,89.56,0,0,0,1703.27,204a90.59,90.59,0,0,0-34.21-31q-21.61-11.53-49-11.53-28.83,0-52,13.24a93.86,93.86,0,0,0-36.18,36.75q-13,23.49-13,53.4t13,53.41a94.09,94.09,0,0,0,36,36.74q23,13.25,52.15,13.25,27.13,0,48.76-11.68a91.92,91.92,0,0,0,34.35-31.48,90.71,90.71,0,0,0,14.41-43.15Z"/><path class="cls-1" d="M1838.93,190.37a36.58,36.58,0,0,0-68.45,0l-65.7,174.2h38.73L1759,322.45h90.67l15.4,42.12h39.58Zm-67.69,98.73,32.19-87.63h2l32,87.63Z"/><path class="cls-1" d="M289.41,204.51V364.57h36.18V186.16C320.74,194.53,303.33,204.51,289.41,204.51Z"/><path class="cls-1" d="M261.54,38.61A18.39,18.39,0,0,0,258,37.18h0A18.39,18.39,0,0,1,261.54,38.61Z"/><path class="cls-1" d="M288.8,187.55c.2,0,.4,0,.61,0v0Z"/><path class="cls-1" d="M289.41,187.51v0l.53-.05Z"/><path class="cls-1" d="M337.06,136.28c-1.76-11.93-13.68-17.74-28-14.63-13,2.83-25.23,11.59-33.45,22.29a89.13,89.13,0,0,1-38.45,28.52l-.6.22c-9.18,3.44-17.65,2.71-22.8-1.94h0c-5.13-4.64-6.32-12.64-3.2-21.5l6.59-18.74a155.2,155.2,0,0,1,39.27-60C264.76,62.53,271.08,52.39,273,42c2.54-13.76-4.23-24.25-16.77-25.85-20.25-2.6-45.32,16-52.94,37.66-2.9,8.24-2.79,15.58-.26,21.17,7,15.38,5.42,35.88-2,56.89l-6.59,18.73c-3.12,8.86-10.17,17.53-19,23.31l-.12.07c-8.8,5.78-18.29,8-25.51,5.91L145,178.42c-10-2.86-15.48-11.07-16.68-21.73-1.11-9.8-7.78-16.87-19.5-17.58-12.87-.78-29,7.38-40,20.21-17.8,20.86-16.36,44,1.28,49.06,8.6,2.47,19.28.12,29.21-5.59,13-7.46,26.39-10.74,36.81-7.75l2.82.81c7.22,2.07,11.32,8.15,11,16.37l0,1.3c-.31,8.13-4.88,17.37-12.34,24.92l-2,2.07C110.3,266,81.27,288.56,50.7,302.35a63.9,63.9,0,0,0-23.31,18.49c-10.48,13.19-13.76,28.69-8,38.26,9.25,15.49,35.21,11.19,53.73-7.33A58.21,58.21,0,0,0,86.2,332.28c10.86-27.62,30.8-54.68,54.21-78.38l6.55-6.63c7.62-7.71,17.31-12.71,26-13.42l.27,0c8.67-.71,15.29,2.92,17.79,9.75l1.14,3.1c3.52,9.6.88,22.24-6,34.7-6.32,11.44-7.67,23.57-1.79,31.91,6.4,9.07,20.67,10.52,35.26,3.52,23.51-11.29,38.12-37.09,31.92-53.59-3-8.05-10.36-12.21-19.53-12.27-11.94-.09-20.32-6.6-23.9-16.36l-.73-2c-2.48-6.75-.64-15.81,5-24.41l.8-1.23a50.05,50.05,0,0,1,23.47-19.17h0c14.29-5.34,28.1-5.65,37.46.14,6.35,3.94,16.1,5.53,26.09.53C319.81,178.62,339.79,154.82,337.06,136.28Z"/><rect class="cls-1" x="1992.75" y="245.03" width="21.08" height="20.06"/><polygon class="cls-1" points="1955.56 245.03 2002.86 169.62 1978.69 169.62 1931.56 245.03 1931.56 265.09 1992.75 265.09 1992.75 245.03 1955.56 245.03"/><rect class="cls-1" x="1992.75" y="265.09" width="21.08" height="23.34"/><rect class="cls-1" x="1992.75" y="205.78" width="21.08" height="39.25"/><path class="cls-1" d="M2018.39,245h-4.56v20.06h7.61A54.94,54.94,0,0,1,2018.39,245Z"/><path class="cls-1" d="M2105.26,166.7c-1.64,0-3.33.07-5,.21-34.22,2.78-67.79,32.81-75,67.08a61.72,61.72,0,0,0-1.27,11,48.82,48.82,0,0,0,3.5,20.06c6.51,15.88,21.59,26.1,41.68,26.1,1.65,0,3.33-.06,5-.2,34.22-2.79,67.79-32.82,75-67.08C2156,191.36,2136.57,166.7,2105.26,166.7Zm-35.53,104.51c-7.79,0-14-2.67-18.62-7.94-5.13-5.92-6.39-14.71-3.84-26.88,5.23-24.89,30.18-47.59,54.5-49.57,9.05-.74,16.28,1.73,21.55,7.81s6.61,15.07,4.13,26.88c-5.21,24.89-30.17,47.59-54.49,49.57C2071.87,271.17,2070.79,271.21,2069.73,271.21Z"/><path class="cls-1" d="M1949.72,364.57a23.82,23.82,0,0,1-10-2A15.59,15.59,0,0,1,1933,357a14.84,14.84,0,0,1-2.4-8.41,14.36,14.36,0,0,1,2.32-8.17,14.2,14.2,0,0,1,6.43-5.21v-.46a12.78,12.78,0,0,1-4.87-4.41,12.1,12.1,0,0,1-1.75-6.62,13.4,13.4,0,0,1,2.13-7.56,14.08,14.08,0,0,1,6-5,22.72,22.72,0,0,1,17.68,0,13.19,13.19,0,0,1,8.06,12.58,12.26,12.26,0,0,1-1.71,6.62,12.45,12.45,0,0,1-4.83,4.41v.46a14.47,14.47,0,0,1,6.39,5.21,14.15,14.15,0,0,1,2.36,8.17,14.84,14.84,0,0,1-2.4,8.41,15.59,15.59,0,0,1-6.73,5.59A23.89,23.89,0,0,1,1949.72,364.57Zm0-6a16.83,16.83,0,0,0,6.65-1.22,9.64,9.64,0,0,0,4.38-3.5,10.35,10.35,0,0,0,0-10.8,9.82,9.82,0,0,0-4.38-3.53,18.28,18.28,0,0,0-13.34,0,10.07,10.07,0,0,0-4.37,3.53,9.33,9.33,0,0,0-1.56,5.4,9,9,0,0,0,3.42,7.38C1942.8,357.65,1945.87,358.57,1949.72,358.57Zm0-26.09a11.56,11.56,0,0,0,7.6-2.32,7.7,7.7,0,0,0,2.82-6.27,7.59,7.59,0,0,0-2.82-6.24,13.82,13.82,0,0,0-15.21,0,7.61,7.61,0,0,0-2.81,6.24,7.72,7.72,0,0,0,2.81,6.27A11.6,11.6,0,0,0,1949.72,332.48Z"/><path class="cls-1" d="M1991.09,364.57q-9.66,0-14.52-6.61t-4.87-20a47.16,47.16,0,0,1,2.2-15.21,20.58,20.58,0,0,1,6.66-9.93,17.63,17.63,0,0,1,11.14-3.46,20.39,20.39,0,0,1,8.59,1.71,14.77,14.77,0,0,1,6,4.83,15.52,15.52,0,0,1,2.78,7.15h-6.62a8.21,8.21,0,0,0-3.61-5.7,12.75,12.75,0,0,0-7.11-1.91q-6.92,0-10.19,5.33t-3.5,15.44h.53a14.3,14.3,0,0,1,5.67-6,16.45,16.45,0,0,1,8.17-2,17.94,17.94,0,0,1,9,2.24,15.54,15.54,0,0,1,6.12,6.35,20.15,20.15,0,0,1,2.17,9.51,19.5,19.5,0,0,1-2.29,9.66,15.68,15.68,0,0,1-6.53,6.35A20.57,20.57,0,0,1,1991.09,364.57Zm.3-6.08a12.43,12.43,0,0,0,6.13-1.45,9.88,9.88,0,0,0,4.07-4.22,13.91,13.91,0,0,0,1.44-6.5q0-5.62-3.15-8.86a11.36,11.36,0,0,0-8.49-3.23,12.32,12.32,0,0,0-6.15,1.45,10,10,0,0,0-4,4.22,13.74,13.74,0,0,0-1.44,6.42q0,5.63,3.12,8.9A11.19,11.19,0,0,0,1991.39,358.49Z"/><path class="cls-1" d="M2074.35,358.26q0-7.06,2.39-11.33a16.55,16.55,0,0,1,5.78-6.28,54.73,54.73,0,0,1,8.71-4,53.28,53.28,0,0,0,6.31-2.74,10.53,10.53,0,0,0,3.77-3.34,9.35,9.35,0,0,0,1.48-5.47,9.53,9.53,0,0,0-2.62-7.08,9.92,9.92,0,0,0-7.27-2.59,11.51,11.51,0,0,0-7.52,2.48,9.79,9.79,0,0,0-3.43,7.19h-6.39a16.87,16.87,0,0,1,2.4-8,15.54,15.54,0,0,1,6.05-5.67,19,19,0,0,1,9.12-2.09,18.13,18.13,0,0,1,8.6,1.94,14,14,0,0,1,5.7,5.52,16.57,16.57,0,0,1,2.05,8.36,15.22,15.22,0,0,1-2,8.33,13.62,13.62,0,0,1-4.9,4.75,63.72,63.72,0,0,1-7.6,3.42,58.23,58.23,0,0,0-7.42,3.42,12.61,12.61,0,0,0-4.56,4.61,14.37,14.37,0,0,0-1.64,7.87l29.36-.23v6.23h-36.35Z"/><path class="cls-1" d="M2132.45,364.57q-9.66,0-14.53-6.61t-4.87-20a47.14,47.14,0,0,1,2.21-15.21,20.57,20.57,0,0,1,6.65-9.93,17.65,17.65,0,0,1,11.14-3.46,20.36,20.36,0,0,1,8.59,1.71,14.8,14.8,0,0,1,6,4.83,15.63,15.63,0,0,1,2.78,7.15h-6.63a8.16,8.16,0,0,0-3.6-5.7,12.81,12.81,0,0,0-7.12-1.91q-6.91,0-10.19,5.33t-3.5,15.44h.54a14.28,14.28,0,0,1,5.66-6,16.48,16.48,0,0,1,8.18-2,17.93,17.93,0,0,1,9,2.24,15.5,15.5,0,0,1,6.13,6.35,20.15,20.15,0,0,1,2.16,9.51,19.6,19.6,0,0,1-2.28,9.66,15.65,15.65,0,0,1-6.54,6.35A20.53,20.53,0,0,1,2132.45,364.57Zm.3-6.08a12.42,12.42,0,0,0,6.12-1.45,9.82,9.82,0,0,0,4.07-4.22,13.91,13.91,0,0,0,1.45-6.5q0-5.62-3.16-8.86a11.32,11.32,0,0,0-8.48-3.23,12.36,12.36,0,0,0-6.16,1.45,10,10,0,0,0-4,4.22,13.62,13.62,0,0,0-1.44,6.42q0,5.63,3.11,8.9A11.22,11.22,0,0,0,2132.75,358.49Z"/><path class="cls-1" d="M2019.49,350.18a9.72,9.72,0,0,1,5.72-4c5.81-1.31,11.22-5.15,15.74-9.86l1.91-2c4.52-4.71,8.34-10.45,9.91-16.84a11,11,0,0,1,4-6.09c3-2.26,6.82-2.41,9.39-.37,4,3.23,3.82,9.94-.14,14.06a9.44,9.44,0,0,1-4.38,2.64,31.94,31.94,0,0,0-15,8.84l-4,4.15a37.53,37.53,0,0,0-9,16,11,11,0,0,1-2.67,4.7c-4,4.11-10,3.91-12.57-.83C2016.86,357.61,2017.26,353.32,2019.49,350.18Z"/></svg>