<svg id="Capa_1" data-name="Capa 1" xmlns="http://www.w3.org/2000/svg" viewBox="0 0 1206.26 619.91"><defs><style>.cls-1{fill:#fff;}</style></defs><path class="cls-1" d="M257,38.62c-.45,0-.91.06-1.37.08,1,0,1.94,0,2.88,0C258,38.69,257.53,38.62,257,38.62Z"/><path class="cls-1" d="M289,190.17c.56,0,1.13-.06,1.69-.09-.85,0-1.7.08-2.53,0C288.39,190.14,288.67,190.17,289,190.17Z"/><path class="cls-1" d="M485.73,324.65h-2.28L400.18,184.59A31.85,31.85,0,0,0,341,200.87V368.92h35.41V213.28h2L461.9,353.37A31.87,31.87,0,0,0,521.14,337V169H485.73Z"/><polygon class="cls-1" points="534.08 203.28 587.34 203.28 587.34 368.92 624.75 368.92 624.75 203.28 678.29 203.28 678.29 169.02 534.08 169.02 534.08 203.28"/><path class="cls-1" d="M738.7,335.22a9.86,9.86,0,0,1-9.86-9.86V283.25h99.95V250.69H728.84v-48h106.8V169H691.43V328.14a40.78,40.78,0,0,0,40.78,40.78H837.36v-33.7Z"/><path class="cls-1" d="M515,561.39a9.87,9.87,0,0,1-9.86-9.86V509.41h99.95V476.86H505.1v-48H611.91V395.19H467.69V554.31a40.77,40.77,0,0,0,40.78,40.77H613.62V561.39Z"/><path class="cls-1" d="M963.52,290.13a75.61,75.61,0,0,0,17.76-5.74q16.29-7.72,24.7-21.56t8.43-32.13q0-18-8.43-32t-24.7-21.85Q965,169,942.16,169h-45a46.67,46.67,0,0,0-46.67,46.67V368.92H887.9V292.1h33.93l47.68,76.82h44Zm-75.62-77.5a9.92,9.92,0,0,1,9.91-9.92h43.78q16.56,0,25.42,7.28t8.85,20.71a27.68,27.68,0,0,1-4,15.14,25,25,0,0,1-11.71,9.56q-7.71,3.28-18.56,3.29H887.9Z"/><path class="cls-1" d="M420.72,403.18q-16.71-8-39.55-8H332.48A41.84,41.84,0,0,0,290.64,437V595.08h37.41V521.69h53.12q22.84,0,39.55-8T446,491.28q8.56-14.41,8.57-33T446,425.46Q437.42,411.18,420.72,403.18Zm-8.57,71.11a25.93,25.93,0,0,1-12.13,10q-8,3.44-19.42,3.43H328.05V439.12a10.24,10.24,0,0,1,10.24-10.24H380.6q17.13,0,26.41,7.71t9.28,21.71Q416.29,467.72,412.15,474.29Z"/><path class="cls-1" d="M758.41,486.72q-16.29-7.35-42.84-11.08-19.43-2.59-29.7-5.76t-14.71-8.05q-4.42-4.9-4.42-12.95,0-12.09,10.14-18.13T705,424.7a70.5,70.5,0,0,1,23.12,3.46,34.76,34.76,0,0,1,16,10.79q6,7.33,6,18h38.56a64.19,64.19,0,0,0-10.28-34.67q-10-15.39-28.56-23.89T707,389.89q-24,0-41.83,7.33t-27.42,21q-9.57,13.66-9.56,32.37,0,17.56,7.28,28.78t24.27,18.12q17,6.92,47.26,11.52,17.13,2.87,26.56,6.18t13.57,8.64c2.75,3.55,4.14,8.1,4.14,13.67q0,13.23-10.71,19.85T711,564q-16.28,0-28.13-4.75t-18-13.38a35.29,35.29,0,0,1-6.42-20.14H620.19q.28,21.59,10.85,38.12t30.7,25.76q20.13,9.21,48.12,9.21,24,0,42.12-7.49t28-21.58q9.87-14.09,9.86-33.66,0-18.14-7.57-30.08T758.41,486.72Z"/><path class="cls-1" d="M958.59,511.61a60.07,60.07,0,0,1-9.28,25.75,54.47,54.47,0,0,1-20.56,18.56q-13,6.9-30.13,6.91-18.86,0-33.13-8.49a56.57,56.57,0,0,1-22-23.89q-7.71-15.39-7.71-36.11t7.71-36.11a56.61,56.61,0,0,1,22-23.88q14.28-8.49,33.13-8.5,16.85,0,30,6.91A56.3,56.3,0,0,1,949.45,451a53.89,53.89,0,0,1,9.14,24.89h38.55a90.45,90.45,0,0,0-14.42-43,91.51,91.51,0,0,0-34.55-31.36q-21.85-11.66-49.55-11.65-29.13,0-52.55,13.38a94.8,94.8,0,0,0-36.55,37.12q-13.14,23.73-13.13,53.95t13.13,53.95a95,95,0,0,0,36.41,37.12q23.28,13.4,52.69,13.39,27.42,0,49.26-11.8a92.9,92.9,0,0,0,34.7-31.8,91.64,91.64,0,0,0,14.56-43.59Z"/><path class="cls-1" d="M1119.77,419.1a37,37,0,0,0-69.15,0l-66.37,176h39.12L1039,552.53h91.6l15.57,42.55h40Zm-68.38,99.74,32.52-88.53h2l32.37,88.53Z"/><path class="cls-1" d="M291.26,207.21V368.92h36.55V188.67C322.91,197.13,305.32,207.21,291.26,207.21Z"/><path class="cls-1" d="M267.14,40.92a18.69,18.69,0,0,0-3.59-1.44h0A18.69,18.69,0,0,1,267.14,40.92Z"/><path class="cls-1" d="M290.64,190.08c.21,0,.41,0,.62,0v0Z"/><path class="cls-1" d="M291.26,190v0l.53-.05Z"/><path class="cls-1" d="M339.4,138.28c-1.78-12.06-13.82-17.92-28.29-14.78C298,126.36,285.62,135.21,277.32,146a90.07,90.07,0,0,1-38.85,28.81l-.61.23c-9.26,3.47-17.83,2.73-23-2h0c-5.18-4.69-6.39-12.76-3.24-21.72l6.66-18.93a156.83,156.83,0,0,1,39.68-60.67c8.43-8,14.81-18.24,16.76-28.79,2.57-13.9-4.27-24.49-16.94-26.12C237.29,14.24,212,33.05,204.27,54.91c-2.93,8.33-2.82,15.74-.27,21.4,7,15.53,5.47,36.24-2,57.46l-6.66,18.92c-3.15,9-10.27,17.71-19.16,23.55l-.13.08c-8.89,5.84-18.47,8.06-25.77,6l-5-1.42c-10.09-2.89-15.64-11.19-16.86-22-1.11-9.9-7.85-17.05-19.69-17.76-13-.79-29.34,7.45-40.41,20.42-18,21.07-16.53,44.45,1.3,49.56,8.69,2.49,19.48.12,29.51-5.65,13.09-7.53,26.66-10.85,37.19-7.83l2.84.82c7.3,2.09,11.44,8.24,11.13,16.54l-.05,1.31c-.3,8.22-4.92,17.55-12.46,25.18l-2.06,2.09C110.31,269.35,81,292.12,50.1,306.06a64.41,64.41,0,0,0-23.55,18.68c-10.59,13.32-13.9,29-8.13,38.65C27.76,379,54,374.69,72.7,356A58.84,58.84,0,0,0,86,336.29c11-27.9,31.12-55.23,54.77-79.18l6.62-6.7c7.69-7.79,17.48-12.84,26.28-13.56l.27,0c8.75-.72,15.44,2.95,18,9.85l1.15,3.14c3.56,9.7.89,22.46-6.07,35.05-6.39,11.56-7.75,23.82-1.81,32.24,6.47,9.16,20.89,10.63,35.62,3.56,23.76-11.41,38.51-37.48,32.25-54.15-3-8.13-10.47-12.33-19.73-12.4-12.07-.09-20.53-6.66-24.15-16.52l-.74-2c-2.5-6.82-.63-16,5-24.66l.8-1.24a50.58,50.58,0,0,1,23.72-19.37h0c14.44-5.4,28.38-5.71,37.84.15,6.42,4,16.26,5.58,26.35.53C322,181.06,342.15,157,339.4,138.28Z"/><path class="cls-1" d="M251.51,36.33c-.44,0-.9.06-1.34.08a26.85,26.85,0,0,1,2.84,0C252.51,36.4,252,36.33,251.51,36.33Z"/><path class="cls-1" d="M261.54,38.61A18.39,18.39,0,0,0,258,37.18h0A18.39,18.39,0,0,1,261.54,38.61Z"/></svg>