<svg xmlns="http://www.w3.org/2000/svg" viewBox="10 30 335 355"><path fill="#fff" d="M339.4,138.28c-1.78-12.06-13.82-17.92-28.29-14.78C298,126.36,285.62,135.21,277.32,146a90.07,90.07,0,0,1-38.85,28.81l-.61.23c-9.26,3.47-17.83,2.73-23-2h0c-5.18-4.69-6.39-12.76-3.24-21.72l6.66-18.93a156.83,156.83,0,0,1,39.68-60.67c8.43-8,14.81-18.24,16.76-28.79,2.57-13.9-4.27-24.49-16.94-26.12C237.29,14.24,212,33.05,204.27,54.91c-2.93,8.33-2.82,15.74-.27,21.4,7,15.53,5.47,36.24-2,57.46l-6.66,18.92c-3.15,9-10.27,17.71-19.16,23.55l-.13.08c-8.89,5.84-18.47,8.06-25.77,6l-5-1.42c-10.09-2.89-15.64-11.19-16.86-22-1.11-9.9-7.85-17.05-19.69-17.76-13-.79-29.34,7.45-40.41,20.42-18,21.07-16.53,44.45,1.3,49.56,8.69,2.49,19.48.12,29.51-5.65,13.09-7.53,26.66-10.85,37.19-7.83l2.84.82c7.3,2.09,11.44,8.24,11.13,16.54l-.05,1.31c-.3,8.22-4.92,17.55-12.46,25.18l-2.06,2.09C110.31,269.35,81,292.12,50.1,306.06a64.41,64.41,0,0,0-23.55,18.68c-10.59,13.32-13.9,29-8.13,38.65C27.76,379,54,374.69,72.7,356A58.84,58.84,0,0,0,86,336.29c11-27.9,31.12-55.23,54.77-79.18l6.62-6.7c7.69-7.79,17.48-12.84,26.28-13.56l.27,0c8.75-.72,15.44,2.95,18,9.85l1.15,3.14c3.56,9.7.89,22.46-6.07,35.05-6.39,11.56-7.75,23.82-1.81,32.24,6.47,9.16,20.89,10.63,35.62,3.56,23.76-11.41,38.51-37.48,32.25-54.15-3-8.13-10.47-12.33-19.73-12.4-12.07-.09-20.53-6.66-24.15-16.52l-.74-2c-2.5-6.82-.63-16,5-24.66l.8-1.24a50.58,50.58,0,0,1,23.72-19.37h0c14.44-5.4,28.38-5.71,37.84.15,6.42,4,16.26,5.58,26.35.53C322,181.06,342.15,157,339.4,138.28Z"/></svg>
