<svg id="Capa_1" data-name="Capa 1" xmlns="http://www.w3.org/2000/svg" viewBox="0 0 540.66 396.26"><defs><style>.cls-1{fill:#fff;}</style></defs><path class="cls-1" d="M306,209.34V380.18h38.38V188.31C335.64,202.23,320.2,208.6,306,209.34Z"/><path class="cls-1" d="M355.55,139.24c-1.86-12.62-14.47-18.76-29.62-15.47-13.75,3-26.68,12.25-35.37,23.57a94.33,94.33,0,0,1-40.68,30.17l-.63.23c-9.7,3.63-18.67,2.87-24.11-2.05h0c-5.43-4.91-6.69-13.37-3.39-22.75l7-19.81a164.12,164.12,0,0,1,41.54-63.52c8.82-8.38,15.5-19.1,17.54-30.15,2.69-14.54-4.47-25.64-17.74-27.34-21.41-2.74-47.93,16.94-56,39.84-3.06,8.71-2.95,16.48-.27,22.4,7.35,16.26,5.73,38-2.09,60.16l-7,19.81c-3.3,9.38-10.76,18.54-20.07,24.65l-.12.09c-9.31,6.11-19.34,8.43-27,6.24l-5.21-1.49c-10.56-3-16.38-11.72-17.65-23-1.17-10.37-8.22-17.85-20.62-18.6-13.62-.82-30.72,7.81-42.3,21.38C53,185.68,54.49,210.15,73.14,215.5c9.11,2.61,20.4.13,30.9-5.91,13.71-7.89,27.91-11.36,38.94-8.2l3,.85c7.64,2.19,12,8.63,11.65,17.32l-.05,1.38c-.32,8.59-5.16,18.37-13.05,26.35l-2.16,2.19c-26.64,27-57.35,50.82-89.68,65.41A67.51,67.51,0,0,0,28,334.45c-11.09,13.95-14.56,30.34-8.52,40.47,9.78,16.38,37.25,11.82,56.83-7.76a61.49,61.49,0,0,0,13.88-20.62c11.5-29.2,32.59-57.82,57.35-82.9l6.92-7c8.06-8.15,18.31-13.44,27.51-14.19l.29,0c9.17-.74,16.17,3.1,18.82,10.32l1.2,3.28c3.73,10.16.93,23.52-6.35,36.7-6.69,12.1-8.12,24.93-1.9,33.75,6.77,9.6,21.87,11.13,37.29,3.73,24.87-11.94,40.32-39.24,33.77-56.69-3.2-8.51-11-12.91-20.66-13-12.63-.1-21.5-7-25.28-17.3l-.77-2.11c-2.62-7.14-.67-16.73,5.24-25.82l.85-1.3a53,53,0,0,1,24.82-20.28h0c15.12-5.65,29.72-6,39.62.15,6.72,4.16,17,5.85,27.6.56C337.3,184,358.43,158.85,355.55,139.24Z"/><path class="cls-1" d="M491.82,178.66q-17.46-8.35-41.33-8.36H399.62A43.73,43.73,0,0,0,355.89,214V379.19H395V302.5h55.51q23.86,0,41.33-8.35t26.41-23.43q9-15.06,8.95-34.46t-8.95-34.32Q509.28,187,491.82,178.66ZM482.87,253a27.15,27.15,0,0,1-12.69,10.45Q461.84,267,449.89,267H395V216.21a10.7,10.7,0,0,1,10.7-10.69h44.21q17.91,0,27.61,8t9.69,22.69Q487.19,246.1,482.87,253Z"/></svg>